<svg width="800" height="600" xmlns="http://www.w3.org/2000/svg">
    <g id="Layer_1">
        <title>Layer 1</title>
        <path id="svg_13"
            d="m280.00805,194.41115l0,0c0,-5.3659 7.2847,-9.71582 16.27083,-9.71582l7.39584,0l0,0l35.50001,0l66.56249,0c4.3153,0 8.45385,1.02363 11.50523,2.8457c3.05136,1.82207 4.76561,4.29333 4.76561,6.87012l0,24.28956l0,0l0,14.57373l0,0c0,5.3659 -7.2847,9.71582 -16.27084,9.71582l-66.56249,0l-46.37638,24.70508l10.87637,-24.70508l-7.39584,0c-8.98613,0 -16.27083,-4.34992 -16.27083,-9.71582l0,0l0,-14.57373l0,0l0,-24.28956z"
            stroke="#ff0000" fill="#ff0000" />
    </g>

</svg>