<svg width="800" height="600" xmlns="http://www.w3.org/2000/svg">
    <g id="Layer_1">
        <title>Layer 1</title>
        <path id="svg_1"
            d="m235.28321,234.81178c4.77901,9.53391 5.71199,12.42922 4.13188,12.82242c-3.08664,0.7681 -2.46638,5.16095 1.8539,13.12966c5.41809,9.99364 16.03046,16.13065 25.99875,15.03476c3.86911,-0.42536 8.24332,-1.3032 9.72046,-1.95079c1.47713,-0.64759 0.5707,0.5588 -2.01428,2.68085c-12.93158,10.61569 -28.90264,9.87622 -41.64408,-1.92813c-5.08025,-4.70663 -12.06989,-18.4581 -12.06989,-23.74642c0,-1.49815 -1.15235,-2.94979 -2.56078,-3.22586c-2.30332,-0.45148 -1.99399,-1.64025 3.07665,-11.82389c3.10059,-6.22707 6.01928,-11.76862 6.48599,-12.31455c0.46671,-0.54593 3.62634,4.54895 7.02141,11.32194l0,0zm41.0797,18.3802c-4.77901,-9.5339 -5.71199,-12.42923 -4.13189,-12.82242c3.08664,-0.76808 2.46638,-5.16095 -1.85389,-13.12966c-5.41809,-9.99364 -16.03047,-16.13065 -25.99876,-15.03477c-3.86911,0.42536 -8.24331,1.30321 -9.72044,1.9508c-1.47714,0.64758 -0.57071,-0.55881 2.01427,-2.68085c12.93158,-10.61569 28.90265,-9.87623 41.64409,1.92813c5.08025,4.70662 12.06989,18.45809 12.06989,23.74641c0,1.49816 1.15236,2.94979 2.56077,3.22586c2.30333,0.45149 1.994,1.64025 -3.07664,11.82389c-3.10059,6.22707 -6.01929,11.76862 -6.48599,12.31455c-0.46672,0.54593 -3.62634,-4.54894 -7.02141,-11.32194l0,0z"
            stroke="#ff0000" fill="#ff0000" />
    </g>
</svg>